<svg width="287" height="13" fill="none" xmlns="http://www.w3.org/2000/svg"><path d="M5.127 2.023v10.495H3.914V2.023H0V.968h8.945l.156 1.055H5.127Zm14.339 10.501V6.996h-6.748v5.528h-1.213V.974h1.213v4.988h6.748V.975h1.213v11.55h-1.213Zm5.186 0V.974h6.341V2.03h-5.127v3.932h4.054l.178 1.04h-4.225v4.474h5.305v1.055H24.66l-.008-.007Zm19.866.219c-3.293 0-5.512-2.413-5.512-5.979 0-3.566 2.257-6.014 5.6-6.014 1.377 0 2.502.387 3.419.985l-.192 1.174c-.955-.668-2.005-1.118-3.241-1.118-2.678 0-4.336 2.012-4.336 4.938 0 2.926 1.672 4.959 4.314 4.959 1.302 0 2.486-.486 3.47-1.203l.177 1.104c-.917.654-2.256 1.154-3.699 1.154ZM55.446.904h1.25l4.758 11.487-1.199.253-1.546-3.855h-5.305l-1.494 3.735h-1.25L55.445.904Zm-1.62 6.865h4.454l-2.235-5.528-2.22 5.528Zm22.5 4.755-.792-9.91-4.21 9.98h-.97l-4.21-9.98-.79 9.91h-1.126l.97-11.55h1.494l4.173 10.08L75.06.974h1.48l.97 11.55h-1.184Zm7.791-4.874H82.6v4.874h-1.213V.974h2.996c2.486 0 3.996 1.175 3.996 3.25 0 2.28-1.776 3.433-4.262 3.433V7.65Zm.192-5.663H82.6v4.636h1.569c1.85 0 2.974-.767 2.974-2.378 0-1.49-.984-2.258-2.834-2.258ZM93.802.904h1.25l4.757 11.487-1.198.253-1.546-3.855H91.76l-1.495 3.735h-1.25L93.802.904Zm-1.62 6.865h4.453l-2.234-5.528-2.22 5.528Zm10.588 4.755V.974h1.213v11.55h-1.213Zm10.365.219c-3.596 0-5.704-2.448-5.704-5.979S109.636.75 113.032.75c1.494 0 2.656.387 3.595 1.006l-.214 1.189a5.418 5.418 0 0 0-3.396-1.154c-2.716 0-4.336 1.977-4.336 4.959 0 2.982 1.62 4.959 4.476 4.959 1.147 0 1.976-.267 2.782-.739V7.524h-2.922l-.178-1.055h4.299v5.106c-1.125.704-2.427 1.175-3.995 1.175l-.008-.007Zm15.989-.219-7.095-9.728v9.728h-1.147V.974h1.147l6.888 9.426V.975h1.147v11.55h-.94Zm11.357-10.501v4.122h3.914l.178 1.04h-4.084v5.34h-1.214V.974h6.097V2.03h-4.876l-.015-.007Zm12.549 10.72c-3.241 0-5.461-2.448-5.461-5.979S149.826.75 153.067.75c3.24 0 5.475 2.448 5.475 5.979s-2.235 6.014-5.512 6.014Zm.014-10.952c-2.552 0-4.224 2.012-4.224 4.938 0 2.926 1.694 4.973 4.247 4.973 2.552 0 4.224-2.012 4.224-4.938 0-2.926-1.694-4.973-4.247-4.973Zm15.604 10.854-3.877-5.156h-1.605v5.043h-1.214V.982h3.085c2.412 0 3.907 1.189 3.907 3.18 0 1.793-1.25 2.848-2.834 3.179l3.803 5.057-1.265.254v-.007Zm-3.677-10.65h-1.798v4.502h1.583c1.813 0 2.96-.823 2.96-2.28 0-1.455-.932-2.229-2.745-2.229v.007Zm24.772 10.529-.792-9.91-4.21 9.98h-.969l-4.21-9.98-.792 9.91h-1.124l.969-11.55h1.494l4.173 10.08 4.195-10.08h1.48l.969 11.55h-1.183Zm4.89 0V.974h1.213v11.55h-1.213Zm8.487 0h-3.256V.974h3.308c4.047 0 6.326 2.329 6.326 5.761 0 3.433-2.464 5.796-6.378 5.796v-.007Zm.066-10.515h-2.116v9.474h2.116c3.086 0 5.054-1.575 5.054-4.74 0-3.166-2.028-4.741-5.054-4.741v.007Zm12.918 10.515h-3.255V.974h3.314c4.047 0 6.326 2.329 6.326 5.761 0 3.433-2.464 5.796-6.377 5.796l-.008-.007Zm.067-10.515h-2.116v9.474h2.116c3.085 0 5.053-1.575 5.053-4.74 0-3.166-2.027-4.741-5.053-4.741v.007Zm9.655 10.515V.974h1.214v10.481h4.683l.178 1.07h-6.075Zm8.887 0V.974h6.341V2.03h-5.128v3.932h4.055l.177 1.04h-4.224v4.474h5.305v1.055h-6.519l-.007-.007Zm12.895 0h-2.796V.974h2.818c2.501 0 3.752 1.154 3.752 2.878 0 1.238-.74 2.096-1.85 2.525 1.443.387 2.397 1.273 2.397 2.813 0 2.209-1.709 3.334-4.313 3.334h-.008Zm-.015-10.55h-1.583V5.99h1.546c1.724 0 2.627-.886 2.627-2.096s-.843-1.928-2.59-1.928v.007Zm.052 4.972h-1.635v4.573h1.709c1.85 0 3.012-.823 3.012-2.258 0-1.576-1.184-2.315-3.086-2.315Zm11.898 5.761c-2.856 0-4.543-1.807-4.543-4.501V.975h1.213v7.083c0 2.145 1.11 3.615 3.345 3.615 2.234 0 3.366-1.357 3.366-3.552V.975h1.214V8.12c0 2.8-1.747 4.586-4.595 4.586Zm15.123-.062-3.877-5.156h-1.606v5.043h-1.213V.982h3.085c2.412 0 3.907 1.189 3.907 3.18 0 1.793-1.251 2.848-2.834 3.179l3.803 5.057-1.265.254v-.007Zm-3.678-10.65h-1.797v4.502h1.583c1.813 0 2.959-.823 2.959-2.28 0-1.455-.932-2.229-2.745-2.229v.007Zm11.639 5.739v4.79h-1.213v-4.79l-4.299-6.647 1.251-.232L282.05 6.7l3.574-5.725H287l-4.365 6.766-.008-.007Z" fill="#fff"/></svg>