<svg width="293" height="25" fill="none" xmlns="http://www.w3.org/2000/svg"><path d="M1.633 2.666v9.18h7.922l.242 1.475H1.633v10.997H0V1.19h11.392v1.476h-9.76ZM24.991 24.75c-6.017 0-10.409-4.962-10.409-11.966C14.582 5.779 19.042.75 25.067.75c6.024 0 10.408 4.962 10.408 11.966 0 7.005-4.452 12.034-10.477 12.034h-.007Zm0-22.562c-5.17 0-8.708 4.359-8.708 10.528 0 6.17 3.568 10.596 8.776 10.596s8.708-4.359 8.708-10.529c0-6.169-3.568-10.595-8.776-10.595ZM54.169 24.55l-7.786-10.596h-3.674V24.31h-1.633V1.191h5.541c4.588 0 7.378 2.413 7.378 6.236 0 3.584-2.721 5.767-5.783 6.333L55.9 24.184l-1.731.365Zm-7.65-21.922h-3.81v9.925h3.364c3.81 0 6.22-1.907 6.22-5.06 0-3.151-1.972-4.857-5.782-4.857l.008-.008Zm18.771 21.69V1.19h13.636v3.748H69.74v5.529h7.076l.612 3.718H69.74v6.37h9.525v3.756H65.289v.007Zm29.078.134H89.81L81.238 1.756l4.725-.805 6.289 17.734 6.13-17.495h4.725l-8.739 23.262Zm11.936-.134V1.19h13.636v3.748h-9.184v5.529h7.075l.613 3.718h-7.688v6.37h9.525v3.756h-13.977v.007Zm30.539.022-6.426-8.873h-1.904v8.851h-4.491V1.19h7.28c5.238 0 8.398 2.444 8.398 6.937 0 3.383-1.837 5.5-4.762 6.505l6.871 9.686-4.966.03v-.007Zm-5.881-19.603h-2.48v7.347h2.276c2.789 0 4.52-1.304 4.52-3.718 0-2.415-1.497-3.622-4.316-3.622v-.007Zm22.95 10.729v8.852h-4.521v-8.815L141.197 1.69l4.694-.738 5.881 10.425 5.715-10.194h4.899l-8.467 14.277-.007.007Zm23.57-8.65v3.718h5.714l.953 5.596h-6.667v8.181h-6.902V1.191h14.831v5.632h-7.922l-.007-.007Zm20.333 17.838c-5.745 0-10.031-2.847-10.031-9.657V1.19h6.97v13.911c0 2.549 1.186 3.89 3.159 3.89 2.109 0 3.13-1.408 3.13-3.822V1.19h6.969v13.807c0 6.736-4.52 9.657-10.204 9.657h.007Zm25.746-17.771v17.435h-6.969V6.883h-6.289V1.19h18.875l.952 5.7h-6.561l-.008-.007Zm18.468 17.771c-5.745 0-10.031-2.847-10.031-9.657V1.19h6.97v13.911c0 2.549 1.186 3.89 3.159 3.89 2.109 0 3.13-1.408 3.13-3.822V1.19h6.969v13.807c0 6.736-4.52 9.657-10.205 9.657h.008Zm25.784-.314-4.226-7.197h-1.051v7.175h-6.901V1.19h8.98c6.055 0 9.525 2.645 9.525 7.608 0 3.114-1.429 5.327-4.082 6.668l5.729 8.875h-7.974Zm-3.954-18.158h-1.391v6.2h1.429c2.245 0 3.47-1.14 3.47-3.182 0-2.041-1.255-3.018-3.5-3.018h-.008Zm13.365 18.136V1.19h15.474v5.395h-8.67V9.9h6.561l.847 5.327h-7.416v3.688H293v5.395h-15.783l.007.007Z" fill="#fff"/></svg>