<svg viewBox="0 0 1440 119" preserveAspectRatio="none" xmlns="http://www.w3.org/2000/svg"><path d="M8.03 9.477v45.434h38.961l1.19 7.302H8.03v54.431H0V2.176h56.025v7.301H8.03Zm114.875 109.307c-29.592 0-51.192-24.561-51.192-59.226C71.713 24.892 93.647 0 123.277 0s51.192 24.56 51.192 59.226c0 34.665-21.897 59.558-51.526 59.558h-.038Zm0-111.667c-25.428 0-42.827 21.574-42.827 52.109s17.547 52.44 43.162 52.44 42.827-21.573 42.827-52.108c0-30.535-17.547-52.44-43.162-52.44Zm143.502 110.671-38.292-52.44h-18.068v51.259h-8.03V2.176h27.25c22.567 0 36.285 11.948 36.285 30.866 0 17.739-13.384 28.544-28.44 31.346l37.808 51.593-8.513 1.807ZM228.784 9.293h-18.737v49.121h16.544c18.737 0 30.596-9.44 30.596-25.04S247.484 9.33 228.747 9.33l.037-.037Zm92.31 107.351V2.176h67.066v18.55h-45.169v27.362h34.797l3.011 18.402h-37.808v31.531h46.842v18.586h-68.739v.037Zm143.018.665h-22.417L399.537 4.979 422.772.996l30.931 87.77 30.15-86.59h23.235L464.112 117.31Zm58.702-.665V2.176h67.066v18.55h-45.169v27.362h34.797l3.011 18.402h-37.808v31.531h46.842v18.586h-68.739v.037Zm150.193.111-31.6-43.921h-9.369v43.81h-22.082V2.176h35.801c25.763 0 41.303 12.095 41.303 34.333 0 16.742-9.034 27.216-23.421 32.194l33.793 47.941-24.425.148v-.037Zm-28.923-97.026H631.89v36.362h11.19c13.718 0 22.231-6.454 22.231-18.402s-7.361-17.923-21.227-17.923v-.037Zm112.867 53.105v43.811H734.72V73.019l-40.3-68.372 23.087-3.65 28.923 51.591L774.536 2.14h24.09l-41.637 70.658-.038.037Zm115.917-42.816V48.42h28.105l4.685 27.696h-32.79v40.491h-33.942V2.176h72.94v27.88h-38.961l-.037-.038Zm100.005 88.286c-28.254 0-49.333-14.087-49.333-47.794V2.176h34.276v68.85c0 12.613 5.837 19.25 15.54 19.25 10.372 0 15.391-6.97 15.391-18.918V2.176h34.273V70.51c0 33.338-22.23 47.794-50.184 47.794h.037ZM1099.5 30.35v86.294h-34.28V30.35h-30.93V2.176h92.83l4.68 28.211h-32.27l-.03-.037Zm90.82 87.954c-28.26 0-49.33-14.087-49.33-47.794V2.176h34.27v68.85c0 12.613 5.84 19.25 15.54 19.25 10.37 0 15.39-6.97 15.39-18.918V2.176h34.28V70.51c0 33.338-22.23 47.794-50.19 47.794h.04Zm126.81-1.549-20.78-35.624h-5.17v35.513h-33.94V2.176h44.16c29.78 0 46.84 13.091 46.84 37.652 0 15.415-7.02 26.367-20.07 33.005l28.18 43.922h-39.22Zm-19.45-89.871h-6.84v30.682h7.03c11.04 0 17.06-5.642 17.06-15.747 0-10.104-6.17-14.935-17.21-14.935h-.04Zm65.73 89.76V2.176h76.1v26.7h-42.64v16.41h32.27l4.16 26.367h-36.47v18.255H1441v26.699h-77.62l.03.037Z" fill="#fff"/></svg>